# xmcd
#
# Track frame offsets: 
#        150
#        25782
#        46621
#        67201
#        96739
#        120493
#        136304
#        162477
#        178970
#        201026
#        218278
#        236554
#        252564
#        268635
#
# Disc length: 3891 seconds
#
# Revision: 0
# Processed by: cddbd v1.5.2PL0 Copyright (c) Steve Scherf et al.
# Submitted via: ExactAudioCopy v1.3
#
DISCID=cd0f310e
DTITLE=Robin Barrett and Coyote Kings - Howl
DYEAR=2015
DGENRE=Blues Rock
TTITLE0=Howl
TTITLE1=Good Thing
TTITLE2=That's Rude
TTITLE3=Waiting To Be Free
TTITLE4=All Eased Up
TTITLE5=Lowdown
TTITLE6=Which Way To Go
TTITLE7=Jackhammer Slow Jammer
TTITLE8=Bomb Inna Backseat
TTITLE9=Party
TTITLE10=Dark Dark Night
TTITLE11=Crazy In The Head
TTITLE12=Naughty Little Girl
TTITLE13=Crack the Whip
EXTD=
EXTT0=
EXTT1=
EXTT2=
EXTT3=
EXTT4=
EXTT5=
EXTT6=
EXTT7=
EXTT8=
EXTT9=
EXTT10=
EXTT11=
EXTT12=
EXTT13=
PLAYORDER=
